<mxfile host="app.diagrams.net" modified="2023-12-16T21:28:46.149Z" agent="Mozilla/5.0 (Windows NT 10.0; Win64; x64) AppleWebKit/537.36 (KHTML, like Gecko) Chrome/119.0.0.0 Safari/537.36 OPR/105.0.0.0" version="22.1.11" etag="CJ-sjlaf6gPM4EQWotRg" type="github">
  <diagram name="PÃ¡gina-1" id="PjCAtSCGk2_K5E_NNylO">
    <mxGraphModel>
      <root>
        <mxCell id="0" />
        <mxCell id="1" parent="0" />
      </root>
    </mxGraphModel>
  </diagram>
</mxfile>
